<svg version="1.2" xmlns="http://www.w3.org/2000/svg" viewBox="0 0 928 928" width="928" height="928">
	<title>flash-svg</title>
	<style>
		.s0 { fill: #000000 } 
	</style>
	<path id="Layer" class="s0" d="m117.8 577.1c31.1 100.5 93 174.9 185.8 223.3 26.2 13.7 54 23.2 82.9 29.9 19 4.4 38.3 7.2 57.7 8.4 43.4 2.8 86.1-2.1 127.7-14.8 47-14.4 89.4-37.2 127.3-68.5 15.5-12.9 30-26.9 43-42.4 3.1-3.7 5.2-3.9 8.8-0.7 6.2 5.5 12.7 10.7 19.3 15.8 3.1 2.4 3.3 4.2 0.7 7.2-31 35.7-67 65.3-108.2 88.5-43.8 24.6-90.5 40.6-140.2 47.5-29.6 4.2-59.3 4.9-89.1 2.4-57-4.8-110.4-21.1-160.2-48.7-55.2-30.6-100.4-72.2-136.1-124.3-36.1-52.7-58.2-110.9-66.6-174.3-4.1-31.1-4.5-62.4-1.1-93.6 6.1-55.8 23-108.2 51.1-156.9 0.7-1.2 1.5-2.2 2.1-3.1 2.2-0.3 3 1.1 3.9 2.3 6 7.8 11.9 15.6 18.1 23.2 2.1 2.6 2.2 4.7 0.6 7.7-16.6 31.5-28.6 64.7-35.3 99.8-11.1 57.6-8.6 114.6 7.8 171.3z"/>
	<path id="Layer" class="s0" d="m300.6 494c-54-84.5-107.6-168.3-161.1-252.2-1.5-2.4-3-5-3.7-7.7-2-7 0.7-12.8 5.9-17.2 5.1-4.3 10.4-3.2 15.9 0.2 39 24.3 78.2 48.5 117.3 72.8 44 27.2 87.9 54.6 132 81.8 17.9 11 37.7 3.7 44.3-16.7 9.6-29.2 18.6-58.6 27.8-87.9 1.7-5.6 4-10.8 7-15.7 12.4-20.3 37.4-20.9 50.2-0.9 51 79.8 101.8 159.7 152.9 239.5 41.8 65.5 83.9 130.9 125.9 196.3 2.4 3.6 4 7.3 4 11.6-0.1 6.2-2.8 11.1-8.2 14.2-5 2.9-9.5 1.7-14.3-1.3-62.9-39.2-125.9-78.3-188.9-117.3q-29.7-18.5-59.5-36.9c-18.6-11.5-38.4-4.6-45.2 16.4-9.7 29.5-18.8 59.2-28.1 88.8-1.8 5.9-4 11.5-7.7 16.5-13.8 19-36.4 18.7-49.2-1-22-33.8-43.5-67.9-65.2-101.9-17.3-26.9-34.5-53.9-52.1-81.4z"/>
	<path id="Layer" class="s0" d="m864.8 520.5c-5.8 46.6-18.4 90.6-39.2 132-2.7 0.2-3.5-1.5-4.4-2.7-6.3-7.8-12.3-15.8-18.7-23.5-2.1-2.6-2.1-4.9-0.8-7.8 17.3-39.1 26.9-80.2 29-122.8 4.4-86-18.6-164.4-69.1-234.3-37.5-51.9-85.6-91.1-143.7-117.9-23.4-10.8-47.9-18.8-73.2-24.3-21.2-4.7-42.7-7.5-64.3-8.3-34.1-1.1-67.8 2.3-100.9 10.8-64 16.3-119.4 47.7-166.6 93.7-2.9 2.8-4.9 3-7.9 0.4-6.5-5.8-13.2-11.2-20-16.7-2.8-2.2-3.4-3.8-0.6-6.6 40.1-39.8 86.3-70.1 138.9-90.5 38-14.7 77.3-23.5 118-26.1 33.2-2.2 66.1-0.1 98.9 5.9 53.7 9.9 103.3 29.7 148.4 60.2 80.6 54.5 135 128.5 162.8 221.8 12 40.3 17.1 81.7 15.5 123.8-0.4 10.8-1 21.6-2.1 32.9z"/>
</svg>